<svg viewBox="0 0 22 22" xmlns="http://www.w3.org/2000/svg"><path d="M19.032 8.233c-1.235-1.296-2.622-2.271-3.92-2.801a4.208 4.208 0 0 0-1.155-2.055l.892-.947a1.266 1.266 0 0 0 1.78-1.16 1.27 1.27 0 0 0-2.538 0c0 .208.055.403.145.576l-.942 1.002a4.205 4.205 0 0 0-4.772.127L7.459 1.846a1.25 1.25 0 0 0 .145-.577 1.27 1.27 0 1 0-.758 1.16L7.89 3.54a4.21 4.21 0 0 0-1.004 1.894c-1.299.53-2.684 1.505-3.918 2.8C1.688 9.575.734 11.09.283 12.497c-.5 1.563-.334 2.845.47 3.61.455.435 1.086.664 1.827.664.943 0 2.038-.364 3.147-1.01.864 2.068 2.344 3.587 4.096 4.062L11 22l1.177-2.177c1.751-.475 3.231-1.994 4.096-4.063 1.108.647 2.204 1.011 3.147 1.011.74 0 1.372-.23 1.827-.663.803-.766.97-2.048.47-3.61-.451-1.408-1.405-2.923-2.685-4.265zM11 9.774l.002.005h-.004L11 9.774zM9.919 12c.359.046.72.072 1.08.072A8.59 8.59 0 0 0 12.082 12c.24.459.506.915.802 1.359l.117.169a4.47 4.47 0 0 1-4 0l.117-.17c.296-.443.561-.9.802-1.358zM11 17.964c-1.623 0-3.07-1.175-4-3 1.283.513 2.64.774 4 .774 1.359 0 2.717-.261 4-.774-.93 1.825-2.377 3-4 3z"></path></svg>