<svg viewBox="0 0 64 64">
  <path d="M39 63H18c-3.6 0-6-2.4-6-6V23h2v34c0 2.5 1.5 4 4 4h21c2.5 0 4-1.5 4-4v-7h7c2.4 0 5-2.6 5-5V34c0-2.4-2.6-5-5-5h-7v-6h2v4h5c3.5 0 7 3.5 7 7v11c0 3.5-3.5 7-7 7h-5v5c0 3.6-2.4 6-6 6z" fill="#343433"/>
  <path d="M49 48h-6V31h6c2.5 0 4 1.5 4 4v9c0 1.3-.3 2.2-1 2.9-.7.7-1.7 1.1-3 1.1zm-4-2h4c.7 0 1.3-.2 1.6-.5.3-.3.5-.8.4-1.5v-9c0-1.4-.6-2-2-2h-4v13z" fill="#343433"/>
  <path d="M20 59c-2.4 0-4-1.6-4-4V23h2v32c0 1.3.7 2 2 2v2z" fill="#333"/>
  <path d="M31 37c-2.2 0-4-1.8-4-4v-9H13v-2h16v11c0 1.1.9 2 2 2s2-.9 2-2V22h11v2h-9v9c0 2.2-1.8 4-4 4z" fill="#333"/>
  <path d="M37 59v-2c1.3 0 2-.7 2-2V23h2v32c0 2.4-1.6 4-4 4zM22 57h9v2h-9zM33 57h2v2h-2z" fill="#333"/>
  <path d="M13 24c-2.5 0-6-2.5-6-7 0-4.4 3.6-8 8-8s8 3.6 8 8h-2c0-3.3-2.7-6-6-6s-6 2.7-6 6 2.6 5 4 5v2z" fill="#343433"/>
  <path d="M38.8 18.6l-1.6-1.2C38.4 15.8 39 14 39 12c0-5-4-9-9-9s-9 4-9 9h-2c0-6.1 4.9-11 11-11s11 4.9 11 11c0 2.4-.8 4.7-2.2 6.6z" fill="#343433"/>
  <path d="M43 24v-2c2.2 0 4-1.8 4-4s-1.8-4-4-4c-.9 0-1.7.3-2.4.8l-1.2-1.6c1-.8 2.3-1.2 3.6-1.2 3.3 0 6 2.7 6 6s-2.7 6-6 6zM25 12h-2c0-3.9 3.1-7 7-7v2c-2.8 0-5 2.2-5 5zM12 17h-2c0-2.8 2.2-5 5-5v2c-1.7 0-3 1.3-3 3z" fill="#343433"/>
</svg>
