<?xml version="1.0" encoding="utf-8"?>
<svg viewBox="0 0 24 24" xmlns="http://www.w3.org/2000/svg">
  <path d="M 13.592 2.101 L 13.592 2.026 C 13.592 1.676 13.705 1.363 13.93 1.088 C 14.155 0.813 14.442 0.676 14.792 0.676 C 15.142 0.676 15.455 0.788 15.73 1.013 C 16.005 1.238 16.155 1.538 16.18 1.913 C 16.205 2.288 16.092 2.601 15.842 2.851 C 15.592 3.101 15.292 3.226 14.942 3.226 L 14.717 3.301 L 14.792 3.413 L 14.717 3.826 L 14.567 5.026 C 14.617 5.076 14.642 5.126 14.642 5.176 L 14.492 5.926 C 14.442 6.026 14.392 6.101 14.342 6.151 L 14.267 6.451 C 14.136 6.981 13.986 7.506 13.817 8.026 L 13.817 8.176 C 13.767 8.426 13.73 8.626 13.705 8.776 C 13.68 8.926 13.592 9.176 13.442 9.526 C 13.342 9.726 13.342 10.051 13.442 10.501 L 13.517 10.576 C 13.517 10.726 13.58 10.901 13.705 11.101 C 13.83 11.301 13.892 11.476 13.892 11.626 C 13.942 12.626 13.867 13.476 13.667 14.176 L 13.817 14.626 C 14.417 14.926 14.592 15.251 14.342 15.601 L 14.717 15.751 C 15.317 16.051 15.742 16.313 15.992 16.538 C 16.242 16.763 16.492 17.001 16.742 17.251 C 16.942 17.301 17.092 17.376 17.192 17.476 L 17.417 17.551 C 18.467 18.251 19.517 19.101 20.567 20.101 L 20.867 20.326 L 20.867 20.401 L 20.792 20.551 L 21.017 20.701 L 21.092 20.701 C 21.242 20.801 21.342 20.851 21.392 20.851 L 21.467 20.851 C 21.517 20.851 21.567 20.826 21.617 20.776 L 21.767 20.701 C 21.867 20.601 21.967 20.526 22.067 20.476 L 22.367 20.476 C 22.417 20.476 22.417 20.501 22.367 20.551 L 22.067 20.701 L 21.692 21.151 L 22.217 21.151 L 22.742 21.226 C 22.892 21.176 23.017 21.126 23.117 21.076 L 23.492 20.851 C 23.642 20.801 23.792 20.851 23.942 21.001 L 24.017 21.001 C 24.067 21.051 24.042 21.126 23.942 21.226 L 23.042 22.051 C 22.792 22.251 22.567 22.376 22.367 22.426 L 21.392 23.101 C 21.342 23.151 21.292 23.151 21.242 23.101 L 21.017 22.801 L 20.867 22.501 L 20.679 22.238 L 20.454 21.938 L 20.267 21.713 L 20.117 21.526 L 19.817 21.301 C 19.717 21.301 19.617 21.276 19.517 21.226 L 18.542 20.476 C 18.392 20.476 18.217 20.401 18.017 20.251 C 17.267 19.601 16.767 19.201 16.517 19.051 L 16.067 18.751 L 15.167 18.601 C 14.867 18.551 14.467 18.401 13.967 18.151 L 13.367 17.851 C 12.967 17.651 12.692 17.551 12.542 17.551 L 12.242 17.401 C 12.042 17.351 11.892 17.301 11.792 17.251 L 11.642 17.101 C 11.542 17.101 11.442 17.126 11.342 17.176 L 9.842 17.926 L 7.967 18.751 C 7.467 19.151 6.992 19.476 6.542 19.726 L 5.717 20.101 L 4.442 21.001 C 4.342 21.101 4.242 21.101 4.142 21.001 L 3.992 21.151 C 3.842 21.201 3.742 21.226 3.692 21.226 L 3.392 21.376 L 3.392 21.526 L 3.242 21.526 L 3.092 21.751 C 2.992 21.951 2.892 22.063 2.792 22.088 C 2.692 22.113 2.63 22.151 2.605 22.201 C 2.586 22.242 2.56 22.279 2.53 22.313 L 2.38 22.463 L 2.155 22.613 L 1.817 22.576 L 1.367 22.651 L 1.067 22.726 C 0.817 22.776 0.617 22.738 0.467 22.613 C 0.317 22.488 0.192 22.301 0.092 22.051 C -0.008 21.901 0.042 21.776 0.242 21.676 L 0.317 21.601 C 0.367 21.551 0.442 21.526 0.542 21.526 L 0.992 21.526 L 1.592 21.301 L 1.892 21.226 C 1.892 21.126 1.917 21.051 1.967 21.001 C 2.017 20.951 2.092 20.926 2.192 20.926 L 2.192 20.851 C 2.143 20.758 2.118 20.655 2.117 20.551 C 2.067 20.451 2.054 20.376 2.08 20.326 C 2.105 20.276 2.13 20.251 2.155 20.251 L 2.192 20.251 L 2.267 20.476 C 2.317 20.726 2.392 20.801 2.492 20.701 L 2.567 20.551 C 2.617 20.451 2.692 20.401 2.792 20.401 L 2.942 20.551 L 3.092 20.401 L 3.017 20.326 C 3.017 20.276 3.042 20.251 3.092 20.251 L 3.392 19.951 C 3.642 19.651 3.942 19.376 4.292 19.126 C 4.992 18.576 5.742 18.151 6.542 17.851 C 6.792 17.601 7.067 17.476 7.367 17.476 C 7.567 17.126 7.867 16.751 8.267 16.351 C 8.617 16.101 8.867 15.926 9.017 15.826 C 9.117 15.626 9.242 15.526 9.392 15.526 L 9.467 15.526 L 9.617 15.376 C 9.717 15.326 9.792 15.276 9.842 15.226 L 9.842 14.851 C 9.842 14.601 9.867 14.401 9.917 14.251 C 9.967 14.101 10.092 14.026 10.292 14.026 L 10.592 13.726 C 10.492 13.526 10.442 13.301 10.442 13.051 L 10.367 13.051 C 10.267 12.901 10.217 12.751 10.217 12.601 C 10.067 12.351 9.967 12.151 9.917 12.001 L 9.692 12.001 C 9.642 12.151 9.517 12.251 9.317 12.301 L 9.242 12.451 C 9.042 12.801 8.867 13.063 8.717 13.238 C 8.567 13.413 8.292 13.626 7.892 13.876 C 7.642 14.126 7.467 14.401 7.367 14.701 C 7.317 14.851 7.317 15.001 7.367 15.151 L 7.292 15.301 L 7.367 15.301 C 7.367 15.401 7.392 15.451 7.442 15.451 L 7.517 15.451 C 7.617 15.501 7.667 15.563 7.667 15.638 C 7.667 15.713 7.592 15.738 7.442 15.713 C 7.316 15.699 7.199 15.646 7.105 15.563 C 7.03 15.488 6.967 15.451 6.917 15.451 L 6.692 15.676 C 6.592 15.826 6.492 15.888 6.392 15.863 C 6.292 15.838 6.267 15.801 6.317 15.751 L 6.392 15.676 C 6.442 15.576 6.442 15.526 6.392 15.526 L 5.792 15.676 C 5.742 15.726 5.68 15.726 5.605 15.676 C 5.53 15.626 5.542 15.576 5.642 15.526 L 6.017 15.376 C 6.017 15.326 5.992 15.301 5.942 15.301 C 5.742 15.401 5.542 15.426 5.342 15.376 L 4.967 15.301 L 4.892 15.226 C 4.892 15.176 4.917 15.151 4.967 15.151 C 5.167 15.201 5.417 15.176 5.717 15.076 L 6.242 14.851 L 6.842 14.176 L 6.917 14.026 C 7.117 13.626 7.33 13.263 7.555 12.938 C 7.753 12.642 7.992 12.377 8.267 12.151 L 8.342 11.851 C 8.442 11.651 8.542 11.476 8.642 11.326 C 8.742 11.176 8.867 10.976 9.017 10.726 L 9.242 10.426 C 9.442 10.126 9.667 9.976 9.917 9.976 L 10.142 9.751 C 10.192 9.701 10.217 9.626 10.217 9.526 L 10.367 9.376 L 10.292 9.301 C 9.992 9.051 9.842 8.826 9.842 8.626 C 9.792 8.276 9.905 7.976 10.18 7.726 C 10.455 7.476 10.73 7.363 11.005 7.388 C 11.28 7.413 11.492 7.501 11.642 7.651 L 11.792 7.801 C 11.842 7.801 11.867 7.826 11.867 7.876 L 12.167 8.026 L 12.167 8.251 C 12.267 8.351 12.317 8.426 12.317 8.476 C 12.417 8.326 12.567 8.151 12.767 7.951 L 13.142 6.751 C 13.142 6.551 13.192 6.351 13.292 6.151 L 13.442 5.926 L 13.442 5.776 L 13.667 4.876 L 13.817 4.876 L 14.042 3.976 C 14.092 3.804 14.092 3.622 14.042 3.451 L 13.742 2.701 L 13.592 2.101 Z"/>
</svg>